<svg width="96" height="96" viewBox="0 0 96 96" fill="none" xmlns="http://www.w3.org/2000/svg">
<circle cx="48" cy="48" r="48" fill="white"/>
<path d="M26.2891 81.0305H16.6764V70.0809H7V60.2135H16.6764V53.9748H7V44.1074H16.6764C16.6764 44.1074 16.1494 39.0932 16.4218 36.0225C16.7646 32.1566 18.6499 26.4734 18.6499 26.4734C18.6499 26.4734 20.8228 20.9053 23.9337 17.6883C27.2044 14.3061 29.7557 11.3342 34.6923 9.41242C38.3499 7.98858 41.3656 6.69993 45.8329 6.67502C50.4472 6.64929 54.1551 6.77684 58.6923 8.58491C63.5946 10.5385 67.0385 12.518 70.5968 16.4151C73.5873 19.6904 74.9706 21.8776 76.6446 26.0279C78.1784 29.8307 79 36.2135 79 36.2135V81.0305H68.9416V36.2135C68.9416 36.2135 68.8559 33.3619 67.9231 30.9934C66.7506 28.0163 65.3071 25.2742 63.0849 22.9722C60.8527 20.6599 59.0678 19.5872 56.0822 18.2613C52.7653 16.7882 49.8847 16.0639 45.8329 16.4151C43.0871 16.6531 41.5121 17.2378 38.5119 18.5795C35.4247 19.9602 34.4105 20.7717 32.1459 23.2905C30.082 25.586 28.9997 26.8289 27.8806 29.7838C26.981 32.1595 26.5769 33.6896 26.2891 36.2135C25.9399 39.2765 26.2891 44.1074 26.2891 44.1074H35.9655V53.9748H26.2891V60.2135H35.9655V70.0809H26.2891V81.0305Z" fill="black" stroke="black" stroke-width="0.127321"/>
</svg>
