<svg width="34" height="35" viewBox="0 0 34 35" fill="none" xmlns="http://www.w3.org/2000/svg">
<path d="M9.57294 34.0481H5.30062V29.1816H1V24.7961H5.30062V22.0233H1V17.6378H5.30062C5.30062 17.6378 5.06641 15.4093 5.18744 14.0445C5.33983 12.3263 6.17772 9.80048 6.17772 9.80048C6.17772 9.80048 7.14346 7.32573 8.52608 5.89597C9.97972 4.39276 11.1136 3.07191 13.3077 2.2178C14.9333 1.58499 16.2736 1.01225 18.2591 1.00118C20.3099 0.989744 21.9578 1.04643 23.9744 1.85002C26.1532 2.71826 27.6838 3.59806 29.2653 5.33012C30.5944 6.7858 31.2092 7.7579 31.9531 9.60245C32.6349 11.2926 33 14.1294 33 14.1294V34.0481H28.5296V14.1294C28.5296 14.1294 28.4915 12.862 28.0769 11.8093C27.5558 10.4862 26.9143 9.26747 25.9266 8.24436C24.9345 7.21668 24.1412 6.73993 22.8143 6.15063C21.3401 5.49591 20.0599 5.17404 18.2591 5.33012C17.0387 5.43589 16.3387 5.69575 15.0053 6.29207C13.6332 6.9057 13.1824 7.26637 12.176 8.38582C11.2587 9.40608 10.7776 9.95848 10.2803 11.2718C9.88043 12.3276 9.70083 13.0076 9.57294 14.1294C9.41775 15.4907 9.57294 17.6378 9.57294 17.6378H13.8736V22.0233H9.57294V24.7961H13.8736V29.1816H9.57294V34.0481Z" fill="black" stroke="black" stroke-width="0.0565871"/>
</svg>
