<svg width="32" height="32" viewBox="0 0 32 32" fill="none" xmlns="http://www.w3.org/2000/svg">
<path d="M16 32L0.783096 20.9443L6.59544 3.05573L25.4046 3.05573L31.2169 20.9443L16 32Z" fill="#00A478"/>
<path d="M13.7752 14.5229V10.514H8.33789V7L23.5319 7V10.5635H18.0946V14.5229H13.7752Z" fill="white"/>
<path fill-rule="evenodd" clip-rule="evenodd" d="M6 14.9685C6 13.6322 10.3702 12.5433 15.8075 12.5433C21.2449 12.5433 25.6151 13.6322 25.6151 14.9685C25.6151 16.3048 21.2449 17.3936 15.8075 17.3936C10.3702 17.3936 6 16.3048 6 14.9685ZM24.8021 14.9685C24.4464 14.4735 21.4991 12.9392 15.8077 12.9392C10.1163 12.9392 7.16892 14.424 6.81321 14.9685C7.16892 15.4634 10.1163 16.2058 15.8077 16.2058C21.5499 16.2058 24.4464 15.4634 24.8021 14.9685Z" fill="white"/>
<path d="M18.0946 15.7604V12.9888C17.3832 12.9393 16.6209 12.8898 15.8587 12.8898C15.1473 12.8898 14.4867 12.8898 13.826 12.9393V15.7109C14.4358 15.7109 15.1473 15.7604 15.8587 15.7604C16.6209 15.8098 17.3832 15.8098 18.0946 15.7604Z" fill="white"/>
<path d="M15.8076 17.3937C15.0961 17.3937 14.4355 17.3937 13.7749 17.3442L13.7749 24.7186H18.0435V17.2947C17.332 17.3442 16.5698 17.3937 15.8076 17.3937Z" fill="white"/>
</svg>
